HIERARCHY
ROOT Hips
{
  OFFSET -4.35178 90.3298 111.633
  CHANNELS 6 Xposition Yposition Zposition Zrotation Xrotation Yrotation
  JOINT LeftUpLeg
  {
    OFFSET 0.103456 1.85784 10.5485
    CHANNELS 6 Xposition Yposition Zposition Zrotation Xrotation Yrotation
    JOINT LeftLeg
    {
      OFFSET 43.5 -4.2e-05 0
      CHANNELS 6 Xposition Yposition Zposition Zrotation Xrotation Yrotation
      JOINT LeftFoot
      {
        OFFSET 42.3722 1.9e-05 0
        CHANNELS 6 Xposition Yposition Zposition Zrotation Xrotation Yrotation
        JOINT LeftToe
        {
          OFFSET 17.3 0 0
          CHANNELS 6 Xposition Yposition Zposition Zrotation Xrotation Yrotation
          End Site
          {
            OFFSET 0 0 0
          }
        }
      }
    }
  }
  JOINT RightUpLeg
  {
    OFFSET 0.103456 1.85782 -10.5485
    CHANNELS 6 Xposition Yposition Zposition Zrotation Xrotation Yrotation
    JOINT RightLeg
    {
      OFFSET 43.5 -2.7e-05 0
      CHANNELS 6 Xposition Yposition Zposition Zrotation Xrotation Yrotation
      JOINT RightFoot
      {
        OFFSET 42.3723 0 0
        CHANNELS 6 Xposition Yposition Zposition Zrotation Xrotation Yrotation
        JOINT RightToe
        {
          OFFSET 17.3 0 1.7e-05
          CHANNELS 6 Xposition Yposition Zposition Zrotation Xrotation Yrotation
          End Site
          {
            OFFSET 0 0 0
          }
        }
      }
    }
  }
  JOINT Spine
  {
    OFFSET 6.90197 -2.60373 0
    CHANNELS 6 Xposition Yposition Zposition Zrotation Xrotation Yrotation
    JOINT Spine1
    {
      OFFSET 12.5881 0 0
      CHANNELS 6 Xposition Yposition Zposition Zrotation Xrotation Yrotation
      JOINT Spine2
      {
        OFFSET 12.3432 -1.8e-05 0
        CHANNELS 6 Xposition Yposition Zposition Zrotation Xrotation Yrotation
        JOINT Neck
        {
          OFFSET 25.8329 2.3e-05 0
          CHANNELS 6 Xposition Yposition Zposition Zrotation Xrotation Yrotation
          JOINT Head
          {
            OFFSET 11.7666 0 0
            CHANNELS 6 Xposition Yposition Zposition Zrotation Xrotation Yrotation
            End Site
            {
              OFFSET 0 0 0
            }
          }
        }
        JOINT LeftShoulder
        {
          OFFSET 19.7459 -1.48035 6.0001
          CHANNELS 6 Xposition Yposition Zposition Zrotation Xrotation Yrotation
          JOINT LeftArm
          {
            OFFSET 11.2841 1.8e-05 -2e-05
            CHANNELS 6 Xposition Yposition Zposition Zrotation Xrotation Yrotation
            JOINT LeftForeArm
            {
              OFFSET 33 -1.3e-05 1.9e-05
              CHANNELS 6 Xposition Yposition Zposition Zrotation Xrotation Yrotation
              JOINT LeftHand
              {
                OFFSET 25.2 3.2e-05 1.1e-05
                CHANNELS 6 Xposition Yposition Zposition Zrotation Xrotation Yrotation
                End Site
                {
                  OFFSET 0 0 0
                }
              }
            }
          }
        }
        JOINT RightShoulder
        {
          OFFSET 19.7461 -1.48036 -6.00008
          CHANNELS 6 Xposition Yposition Zposition Zrotation Xrotation Yrotation
          JOINT RightArm
          {
            OFFSET 11.2841 0 0
            CHANNELS 6 Xposition Yposition Zposition Zrotation Xrotation Yrotation
            JOINT RightForeArm
            {
              OFFSET 33.0001 1.6e-05 0
              CHANNELS 6 Xposition Yposition Zposition Zrotation Xrotation Yrotation
              JOINT RightHand
              {
                OFFSET 25.1998 0.000123 0.000432
                CHANNELS 6 Xposition Yposition Zposition Zrotation Xrotation Yrotation
                End Site
                {
                  OFFSET 0 0 0
                }
              }
            }
          }
        }
      }
    }
  }
}
MOTION
Frames:	4
Frame Time:	0.0333333
-59.5667 88.8614 -125.279 -86.863 0.312942 -177.006 0.103456 1.85784 10.5485 3.36553 -4.54172 176.545 43.5 -4.2e-05 1e-05 -10.9256 -10.1511 -0.990545 42.3722 1.9e-05 0 77.5334 -7.89534 10.1919 17.3 0 3e-06 21.4546 -1e-06 0.003093 0.103456 1.85782 -10.5485 10.2147 12.5294 174.717 43.5 -2.7e-05 4e-06 -1.50616 13.9941 3.4902 42.3723 0 1e-05 84.8115 23.8743 -17.3364 17.3 -6e-06 1.7e-05 21.4546 -1.9e-05 -0.003116 6.90197 -2.60373 -3e-06 7.76923 -0.405385 -0.167335 12.5881 1e-05 8e-06 5.53347 -0.76217 -0.235734 12.3432 -1.8e-05 -5e-06 5.22729 -0.694121 -0.17592 25.8329 2.3e-05 7e-06 7.74239 -1.14099 -7.13672 11.7666 -8e-06 -6e-06 -29.9267 -3.14807 8.31901 19.7459 -1.48035 6.0001 -175.832 4.49898 -96.8238 11.2841 1.8e-05 -2e-05 17.6339 -22.5306 34.155 33 -1.3e-05 1.9e-05 -13.5221 13.2182 -24.8485 25.2 3.2e-05 1.1e-05 -0.0586551 34.5005 -0.763848 19.7461 -1.48036 -6.00008 -172.157 -12.052 86.5153 11.2841 0 -1e-06 15.8038 17.7999 -15.2854 33.0001 1.6e-05 -1e-06 -21.9974 2.30226 23.5761 25.1998 0.000123 0.000432 2.33094 -12.7556 5.60015 
-59.5625 88.8626 -125.278 -86.8627 0.306664 -177.006 0.103456 1.85784 10.5485 3.35094 -4.5358 176.545 43.5 -4.2e-05 1e-05 -10.8924 -10.1566 -0.990562 42.3722 1.9e-05 -2.84217e-14 77.4853 -7.88913 10.205 17.3 3.55271e-15 3e-06 21.4546 -1e-06 0.003093 0.103456 1.85782 -10.5485 10.1967 12.4901 174.693 43.5 -2.7e-05 4e-06 -1.46017 13.9938 3.51081 42.3723 0 1e-05 84.744 23.8459 -17.3334 17.3 -6e-06 1.7e-05 21.4546 -1.9e-05 -0.003116 6.90197 -2.60373 -3e-06 7.78153 -0.383669 -0.167335 12.5881 1e-05 8e-06 5.55746 -0.718933 -0.243745 12.3432 -1.8e-05 -5e-06 5.25064 -0.651158 -0.186565 25.8329 2.3e-05 7e-06 7.74027 -0.938316 -7.24202 11.7666 -8e-06 -6e-06 -29.8881 -2.88296 8.39705 19.7459 -1.48035 6.0001 -175.787 4.60457 -96.8217 11.2841 1.8e-05 -2e-05 17.5384 -22.5316 34.1237 33 -1.3e-05 1.9e-05 -13.5676 13.1667 -24.8429 25.2 3.2e-05 1.1e-05 -0.0320079 34.4794 -0.78582 19.7461 -1.48036 -6.00008 -172.149 -11.9849 86.4738 11.2841 1.42109e-14 -1e-06 15.8513 17.7323 -15.3158 33.0001 1.6e-05 -1e-06 -22.0533 2.31853 23.5853 25.1998 0.000123 0.000432 2.40282 -12.7555 5.60464 
-59.6202 88.8651 -125.277 -86.8612 0.276979 -177.002 0.103456 1.85784 10.5485 3.29753 -4.51129 176.542 43.5 -4.2e-05 1e-05 -10.9004 -10.1356 -0.990497 42.3722 1.9e-05 -2.84217e-14 77.4824 -7.83995 10.1424 17.3 3.55271e-15 3e-06 21.4546 -1e-06 0.003093 0.103456 1.85782 -10.5485 10.1745 12.4336 174.68 43.5 -2.7e-05 4e-06 -1.43706 13.9935 3.53166 42.3723 1.42109e-14 1e-05 84.6874 23.8134 -17.341 17.3 -6e-06 1.7e-05 21.4546 -1.9e-05 -0.003116 6.90197 -2.60373 -3e-06 7.78879 -0.358725 -0.167334 12.5881 1e-05 8e-06 5.57141 -0.669554 -0.255209 12.3432 -1.8e-05 -5e-06 5.26384 -0.602371 -0.201042 25.8329 2.3e-05 7e-06 7.74604 -0.67034 -7.38719 11.7666 -8e-06 -6e-06 -29.7573 -2.52298 8.49723 19.7459 -1.48035 6.0001 -175.738 4.73487 -96.8189 11.2841 1.8e-05 -2e-05 17.3936 -22.523 34.0592 33 -1.3e-05 1.9e-05 -13.5147 13.159 -24.8413 25.2 3.2e-05 1.1e-05 -0.0509692 34.4681 -0.745259 19.7461 -1.48036 -6.00008 -172.187 -11.8842 86.4142 11.2841 0 -1e-06 15.8786 17.6961 -15.345 33.0001 1.6e-05 -1e-06 -22.0766 2.30336 23.5911 25.1998 0.000123 0.000432 2.38291 -12.765 5.61318 
-59.6758 88.8659 -125.276 -86.8542 0.224468 -176.994 0.103456 1.85784 10.5485 3.25914 -4.47017 176.513 43.5 -4.2e-05 1e-05 -10.9323 -10.1065 -0.990407 42.3722 1.9e-05 -2.84217e-14 77.4379 -7.80479 10.124 17.3 0 3e-06 21.4546 -1e-06 0.003093 0.103456 1.85782 -10.5485 10.1539 12.3962 174.662 43.5 -2.7e-05 4e-06 -1.44367 14.0048 3.5488 42.3723 0 1e-05 84.6669 23.8171 -17.3607 17.3 -6e-06 1.7e-05 21.4546 -1.9e-05 -0.003116 6.90197 -2.60373 -3e-06 7.79333 -0.341067 -0.170781 12.5881 1e-05 8e-06 5.58007 -0.634847 -0.264667 12.3432 -1.8e-05 -5e-06 5.272 -0.56819 -0.212625 25.8329 2.3e-05 7e-06 7.77824 -0.427455 -7.53334 11.7666 -8e-06 -6e-06 -29.5983 -2.16831 8.57106 19.7459 -1.48035 6.0001 -175.722 4.84109 -96.8512 11.2841 1.8e-05 -2e-05 17.3306 -22.5831 34.0564 33 -1.3e-05 1.9e-05 -13.4677 13.1582 -24.8554 25.2 3.2e-05 1.1e-05 -0.106339 34.4522 -0.716998 19.7461 -1.48036 -6.00008 -172.247 -11.8064 86.3676 11.2841 0 -1e-06 15.922 17.7017 -15.3876 33.0001 1.6e-05 -1e-06 -22.0828 2.27482 23.6011 25.1998 0.000123 0.000432 2.37264 -12.8009 5.65411 
